<mxfile host="app.diagrams.net" modified="2024-05-10T12:02:08.714Z" agent="Mozilla/5.0 (Windows NT 10.0; Win64; x64) AppleWebKit/537.36 (KHTML, like Gecko) Chrome/124.0.0.0 Safari/537.36" etag="ulDt9wjJwkFa5_oEQQeg" version="24.3.1" type="github">
  <diagram name="第 1 页" id="2sDwQPWfVgfRdvYH4Abs">
    <mxGraphModel dx="1221" dy="636" grid="1" gridSize="10" guides="1" tooltips="1" connect="1" arrows="1" fold="1" page="1" pageScale="1" pageWidth="827" pageHeight="1169" math="0" shadow="0">
      <root>
        <mxCell id="0" />
        <mxCell id="1" parent="0" />
        <mxCell id="iYfhENHHY9f339lWXAG6-1" style="rounded=0;orthogonalLoop=1;jettySize=auto;html=1;exitX=0.5;exitY=1;exitDx=0;exitDy=0;entryX=0.5;entryY=0;entryDx=0;entryDy=0;" edge="1" parent="1" source="iYfhENHHY9f339lWXAG6-6" target="iYfhENHHY9f339lWXAG6-7">
          <mxGeometry relative="1" as="geometry" />
        </mxCell>
        <mxCell id="iYfhENHHY9f339lWXAG6-2" style="rounded=0;orthogonalLoop=1;jettySize=auto;html=1;exitX=0.5;exitY=1;exitDx=0;exitDy=0;" edge="1" parent="1" source="iYfhENHHY9f339lWXAG6-6" target="iYfhENHHY9f339lWXAG6-8">
          <mxGeometry relative="1" as="geometry" />
        </mxCell>
        <mxCell id="iYfhENHHY9f339lWXAG6-3" style="rounded=0;orthogonalLoop=1;jettySize=auto;html=1;exitX=0.5;exitY=1;exitDx=0;exitDy=0;" edge="1" parent="1" source="iYfhENHHY9f339lWXAG6-6" target="iYfhENHHY9f339lWXAG6-9">
          <mxGeometry relative="1" as="geometry" />
        </mxCell>
        <mxCell id="iYfhENHHY9f339lWXAG6-4" style="rounded=0;orthogonalLoop=1;jettySize=auto;html=1;exitX=0.5;exitY=1;exitDx=0;exitDy=0;entryX=0.5;entryY=0;entryDx=0;entryDy=0;" edge="1" parent="1" source="iYfhENHHY9f339lWXAG6-6" target="iYfhENHHY9f339lWXAG6-10">
          <mxGeometry relative="1" as="geometry" />
        </mxCell>
        <mxCell id="iYfhENHHY9f339lWXAG6-5" style="rounded=0;orthogonalLoop=1;jettySize=auto;html=1;exitX=0.5;exitY=1;exitDx=0;exitDy=0;" edge="1" parent="1" source="iYfhENHHY9f339lWXAG6-6" target="iYfhENHHY9f339lWXAG6-11">
          <mxGeometry relative="1" as="geometry" />
        </mxCell>
        <mxCell id="iYfhENHHY9f339lWXAG6-6" value="评论" style="rounded=1;arcSize=10;whiteSpace=wrap;html=1;align=center;" vertex="1" parent="1">
          <mxGeometry x="364" y="450" width="100" height="40" as="geometry" />
        </mxCell>
        <mxCell id="iYfhENHHY9f339lWXAG6-7" value="评论ID" style="ellipse;whiteSpace=wrap;html=1;align=center;" vertex="1" parent="1">
          <mxGeometry x="149" y="565" width="100" height="40" as="geometry" />
        </mxCell>
        <mxCell id="iYfhENHHY9f339lWXAG6-8" value="内容" style="ellipse;whiteSpace=wrap;html=1;align=center;" vertex="1" parent="1">
          <mxGeometry x="253" y="565" width="100" height="40" as="geometry" />
        </mxCell>
        <mxCell id="iYfhENHHY9f339lWXAG6-9" value="评论时间" style="ellipse;whiteSpace=wrap;html=1;align=center;" vertex="1" parent="1">
          <mxGeometry x="359" y="565" width="100" height="40" as="geometry" />
        </mxCell>
        <mxCell id="iYfhENHHY9f339lWXAG6-10" value="用户昵称" style="ellipse;whiteSpace=wrap;html=1;align=center;" vertex="1" parent="1">
          <mxGeometry x="469" y="565" width="100" height="40" as="geometry" />
        </mxCell>
        <mxCell id="iYfhENHHY9f339lWXAG6-11" value="邮箱" style="ellipse;whiteSpace=wrap;html=1;align=center;" vertex="1" parent="1">
          <mxGeometry x="579" y="565" width="100" height="40" as="geometry" />
        </mxCell>
      </root>
    </mxGraphModel>
  </diagram>
</mxfile>
